<?xml version="1.0" standalone="yes"?>

<svg version="1.1" viewBox="0.0 0.0 288.9763779527559 332.4251968503937" fill="none" stroke="none" stroke-linecap="square" stroke-miterlimit="10" xmlns="http://www.w3.org/2000/svg" xmlns:xlink="http://www.w3.org/1999/xlink"><clipPath id="p.0"><path d="m0 0l288.97638 0l0 332.4252l-288.97638 0l0 -332.4252z" clip-rule="nonzero"></path></clipPath><g clip-path="url(#p.0)"><path fill="#000000" fill-opacity="0.0" d="m0 0l288.97638 0l0 332.4252l-288.97638 0z" fill-rule="evenodd"></path><path fill="#ed820e" d="m102.2336 93.74803l85.22835 0l0 60.7874l-85.22835 0z" fill-rule="evenodd"></path><path fill="#ffffff" d="m153.51964 125.76491l-7.390625 0l0 7.390625l-2.578125 0l0 -7.390625l-7.390625 0l0 -2.546875l7.390625 0l0 -7.390625l2.578125 0l0 7.390625l7.390625 0l0 2.546875z" fill-rule="nonzero"></path><path fill="#000000" fill-opacity="0.0" d="m144.84776 93.74803l-2.4251862 -73.921265" fill-rule="evenodd"></path><path stroke="#000000" stroke-width="1.0" stroke-linejoin="round" stroke-linecap="butt" d="m144.84776 93.74803l-2.2284546 -67.924484" fill-rule="evenodd"></path><path fill="#000000" stroke="#000000" stroke-width="1.0" stroke-linecap="butt" d="m144.27016 25.769384l-1.7996521 -4.481497l-1.5020294 4.589819z" fill-rule="evenodd"></path><path fill="#1496dd" d="m27.493439 270.23096l0 0c0 -22.935028 19.079014 -41.527542 42.614174 -41.527542l0 0c11.301979 0 22.14106 4.3752136 30.132767 12.163132c7.9917145 7.7879333 12.481407 18.350616 12.481407 29.36441l0 0c0 22.935059 -19.079018 41.527588 -42.614174 41.527588l0 0c-23.53516 0 -42.614174 -18.59253 -42.614174 -41.527588z" fill-rule="evenodd"></path><path fill="#000000" fill-opacity="0.0" d="m70.10761 228.70341l74.74015 -74.17323" fill-rule="evenodd"></path><path stroke="#000000" stroke-width="1.0" stroke-linejoin="round" stroke-linecap="butt" d="m70.10761 228.70341l70.48139 -69.94678" fill-rule="evenodd"></path><path fill="#000000" stroke="#000000" stroke-width="1.0" stroke-linecap="butt" d="m141.7525 159.92903l2.0576172 -4.3690643l-4.384613 2.024292z" fill-rule="evenodd"></path><path fill="#000000" fill-opacity="0.0" d="m222.1076 228.70341l-77.25984 -74.17323" fill-rule="evenodd"></path><path stroke="#000000" stroke-width="1.0" stroke-linejoin="round" stroke-linecap="butt" d="m222.1076 228.70341l-72.931625 -70.01793" fill-rule="evenodd"></path><path fill="#000000" stroke="#000000" stroke-width="1.0" stroke-linecap="butt" d="m150.3199 157.49397l-4.417557 -1.951355l2.1297302 4.334381z" fill-rule="evenodd"></path><path fill="#000000" fill-opacity="0.0" d="m52.769028 241.27034l34.67717 0l0 73.92125l-34.67717 0z" fill-rule="evenodd"></path><path fill="#ffffff" d="m73.83153 280.99036l0 -1.765625q-1.953125 2.15625 -5.125 2.15625q-2.328125 0 -3.875 -1.46875q-1.53125 -1.484375 -1.53125 -3.65625q0 -2.234375 1.515625 -3.65625q1.53125 -1.4375 3.890625 -1.4375q3.328125 0 5.125 2.109375l0 -2.78125q0 -1.5625 -1.109375 -2.40625q-1.09375 -0.859375 -2.796875 -0.859375q-2.71875 0 -4.734375 2.15625l-1.125 -1.671875q2.46875 -2.5625 6.1875 -2.5625q2.84375 0 4.40625 1.375q1.578125 1.375 1.578125 3.84375l0 10.625l-2.40625 0zm-4.25 -1.34375q2.84375 0 4.25 -1.921875l0 -2.90625q-1.40625 -1.921875 -4.25 -1.921875q-1.703125 0 -2.765625 0.953125q-1.046875 0.9375 -1.046875 2.4375q0 1.46875 1.046875 2.421875q1.0625 0.9375 2.765625 0.9375z" fill-rule="nonzero"></path><path fill="#1496dd" d="m179.49344 270.23096l0 0c0 -22.935028 19.07901 -41.527542 42.614166 -41.527542l0 0c11.301987 0 22.141068 4.3752136 30.132782 12.163132c7.991699 7.7879333 12.481384 18.350616 12.481384 29.36441l0 0c0 22.935059 -19.078995 41.527588 -42.614166 41.527588l0 0c-23.535156 0 -42.614166 -18.59253 -42.614166 -41.527588z" fill-rule="evenodd"></path><path fill="#000000" fill-opacity="0.0" d="m204.76903 241.27034l34.67717 0l0 73.92125l-34.67717 0z" fill-rule="evenodd"></path><path fill="#ffffff" d="m218.5659 276.80286q0.640625 1.015625 1.90625 1.71875q1.265625 0.703125 2.703125 0.703125q2.28125 0 3.640625 -1.640625q1.359375 -1.65625 1.359375 -4.3125q0 -2.6875 -1.34375 -4.328125q-1.34375 -1.65625 -3.65625 -1.65625q-1.4375 0 -2.703125 0.75q-1.265625 0.734375 -1.90625 1.75l0 7.015625zm-2.390625 4.1875l0 -21.34375l2.390625 0l0 8.21875q1.984375 -2.71875 5.21875 -2.71875q3.078125 0 4.96875 2.25q1.90625 2.234375 1.90625 5.875q0 3.71875 -1.90625 5.921875q-1.890625 2.1875 -4.96875 2.1875q-1.625 0 -3.0 -0.75q-1.359375 -0.765625 -2.21875 -1.9375l0 2.296875l-2.390625 0z" fill-rule="nonzero"></path><path fill="#000000" fill-opacity="0.0" d="m142.42258 31.401575l104.7874 0l0 50.771652l-104.7874 0z" fill-rule="evenodd"></path><path fill="#000000" d="m159.0632 58.32157l0 -1.25q-0.9375 1.46875 -2.75 1.46875q-1.171875 0 -2.171875 -0.640625q-0.984375 -0.65625 -1.53125 -1.8125q-0.53125 -1.171875 -0.53125 -2.6875q0 -1.46875 0.484375 -2.671875q0.5 -1.203125 1.46875 -1.84375q0.984375 -0.640625 2.203125 -0.640625q0.890625 0 1.578125 0.375q0.703125 0.375 1.140625 0.984375l0 -4.875l1.65625 0l0 13.59375l-1.546875 0zm-5.28125 -4.921875q0 1.890625 0.796875 2.828125q0.8125 0.9375 1.890625 0.9375q1.09375 0 1.859375 -0.890625q0.765625 -0.890625 0.765625 -2.734375q0 -2.015625 -0.78125 -2.953125q-0.78125 -0.953125 -1.921875 -0.953125q-1.109375 0 -1.859375 0.90625q-0.75 0.90625 -0.75 2.859375zm9.672592 4.921875l0 -8.546875l-1.484375 0l0 -1.3125l1.484375 0l0 -1.046875q0 -0.984375 0.171875 -1.46875q0.234375 -0.65625 0.84375 -1.046875q0.609375 -0.40625 1.703125 -0.40625q0.703125 0 1.5625 0.15625l-0.25 1.46875q-0.515625 -0.09375 -0.984375 -0.09375q-0.765625 0 -1.078125 0.328125q-0.3125 0.3125 -0.3125 1.203125l0 0.90625l1.921875 0l0 1.3125l-1.921875 0l0 8.546875l-1.65625 0z" fill-rule="nonzero"></path><path fill="#000000" fill-opacity="0.0" d="m198.42258 167.40158l104.787384 0l0 50.771652l-104.787384 0z" fill-rule="evenodd"></path><path fill="#000000" d="m208.01633 183.2122l0.421875 -1.3125q1.484375 0.515625 2.140625 0.90625q-0.171875 -1.6875 -0.171875 -2.3125l1.34375 0q-0.03125 0.90625 -0.21875 2.296875q0.953125 -0.484375 2.1875 -0.890625l0.421875 1.3125q-1.171875 0.390625 -2.296875 0.53125q0.5625 0.484375 1.59375 1.75l-1.109375 0.78125q-0.546875 -0.734375 -1.28125 -1.984375q-0.6875 1.296875 -1.203125 1.984375l-1.09375 -0.78125q1.078125 -1.328125 1.53125 -1.75q-1.1875 -0.234375 -2.265625 -0.53125zm13.744644 11.109375l-1.671875 0l0 -10.640625q-0.59375 0.578125 -1.578125 1.15625q-0.984375 0.5625 -1.765625 0.859375l0 -1.625q1.40625 -0.65625 2.453125 -1.59375q1.046875 -0.9375 1.484375 -1.8125l1.078125 0l0 13.65625z" fill-rule="nonzero"></path><path fill="#000000" fill-opacity="0.0" d="m62.422573 167.40158l104.7874 0l0 50.771652l-104.7874 0z" fill-rule="evenodd"></path><path fill="#000000" d="m72.01632 183.2122l0.421875 -1.3125q1.484375 0.515625 2.140625 0.90625q-0.171875 -1.6875 -0.171875 -2.3125l1.34375 0q-0.03125 0.90625 -0.21875 2.296875q0.953125 -0.484375 2.1875 -0.890625l0.421875 1.3125q-1.171875 0.390625 -2.296875 0.53125q0.5625 0.484375 1.59375 1.75l-1.109375 0.78125q-0.546875 -0.734375 -1.28125 -1.984375q-0.6875 1.296875 -1.203125 1.984375l-1.09375 -0.78125q1.078125 -1.328125 1.53125 -1.75q-1.1875 -0.234375 -2.265625 -0.53125zm13.744644 11.109375l-1.671875 0l0 -10.640625q-0.59375 0.578125 -1.578125 1.15625q-0.984375 0.5625 -1.765625 0.859375l0 -1.625q1.40625 -0.65625 2.453125 -1.59375q1.046875 -0.9375 1.484375 -1.8125l1.078125 0l0 13.65625z" fill-rule="nonzero"></path></g></svg>

