<?xml version="1.0" standalone="yes"?>

<svg version="1.1" viewBox="0.0 0.0 287.8267716535433 367.61942257217845" fill="none" stroke="none" stroke-linecap="square" stroke-miterlimit="10" xmlns="http://www.w3.org/2000/svg" xmlns:xlink="http://www.w3.org/1999/xlink"><clipPath id="p.0"><path d="m0 0l287.82678 0l0 367.61942l-287.82678 0l0 -367.61942z" clip-rule="nonzero"></path></clipPath><g clip-path="url(#p.0)"><path fill="#000000" fill-opacity="0.0" d="m0 0l287.82678 0l0 367.61942l-287.82678 0z" fill-rule="evenodd"></path><path fill="#ed820e" d="m78.2336 146.48294l127.02362 0l0 56.06299l-127.02362 0z" fill-rule="evenodd"></path><path fill="#ffffff" d="m99.7278 178.80418q-2.734375 0 -4.4375 -1.71875q-1.703125 -1.734375 -1.703125 -4.375q0 -2.609375 1.703125 -4.328125q1.703125 -1.734375 4.4375 -1.734375q1.78125 0 2.890625 0.65625q1.125 0.640625 1.703125 1.421875l-2.0 1.875q-0.84375 -1.25 -2.4375 -1.25q-1.40625 0 -2.28125 0.9375q-0.875 0.921875 -0.875 2.421875q0 1.515625 0.875 2.453125q0.875 0.9375 2.28125 0.9375q1.546875 0 2.4375 -1.25l2.0 1.84375q-0.578125 0.8125 -1.703125 1.46875q-1.109375 0.640625 -2.890625 0.640625zm11.916824 -9.59375l0 -1.921875l10.703125 0l0 1.921875l-10.703125 0zm0 4.484375l0 -1.875l10.703125 0l0 1.875l-10.703125 0zm19.72432 4.828125l0 -8.921875l-1.921875 0l0 -2.671875l1.921875 0l0 -0.625q0 -1.875 1.078125 -2.953125q1.078125 -1.078125 2.828125 -1.078125q2.046875 0 3.03125 1.078125l-1.15625 1.796875q-0.484375 -0.46875 -1.265625 -0.46875q-0.625 0 -1.046875 0.40625q-0.40625 0.40625 -0.40625 1.21875l0 0.625l2.359375 0l0 2.671875l-2.359375 0l0 8.921875l-3.0625 0zm10.441727 4.78125q-1.78125 -2.015625 -2.796875 -4.875q-1.0 -2.859375 -1.0 -5.734375q0 -2.90625 1.0 -5.75q1.015625 -2.84375 2.796875 -4.859375l1.921875 1.4375q-1.375 2.515625 -1.90625 4.65625q-0.53125 2.140625 -0.53125 4.515625q0 2.4375 0.546875 4.609375q0.5625 2.15625 1.890625 4.5l-1.921875 1.5zm10.815475 -4.78125l0 -1.203125q-1.265625 1.484375 -3.671875 1.484375q-1.671875 0 -2.859375 -1.0625q-1.171875 -1.0625 -1.171875 -2.765625q0 -1.703125 1.109375 -2.71875q1.125 -1.03125 2.921875 -1.03125q2.5 0 3.671875 1.421875l0 -1.5625q0 -0.890625 -0.703125 -1.421875q-0.6875 -0.53125 -1.84375 -0.53125q-1.90625 0 -3.375 1.375l-1.15625 -2.046875q2.109375 -1.8125 5.0625 -1.8125q2.453125 0 3.75 1.140625q1.3125 1.140625 1.3125 3.25l0 7.484375l-3.046875 0zm-2.4375 -1.78125q1.671875 0 2.4375 -1.0l0 -1.4375q-0.765625 -1.015625 -2.4375 -1.015625q-0.921875 0 -1.5625 0.46875q-0.625 0.453125 -0.625 1.28125q0 0.828125 0.625 1.265625q0.640625 0.4375 1.5625 0.4375zm12.156967 0.609375q0 1.359375 -0.6875 2.515625q-0.671875 1.15625 -1.78125 1.9375l-1.3125 -1.078125q0.609375 -0.3125 1.15625 -1.015625q0.5625 -0.6875 0.6875 -1.234375l-0.453125 0.078125q-0.703125 0 -1.171875 -0.484375q-0.46875 -0.484375 -0.46875 -1.25q0 -0.796875 0.546875 -1.359375q0.5625 -0.5625 1.328125 -0.5625q0.90625 0 1.53125 0.6875q0.625 0.6875 0.625 1.765625zm11.694214 -2.546875q0.375 0.546875 1.125 0.921875q0.75 0.375 1.484375 0.375q1.34375 0 2.140625 -0.921875q0.8125 -0.921875 0.8125 -2.4375q0 -1.515625 -0.8125 -2.453125q-0.796875 -0.9375 -2.140625 -0.9375q-0.734375 0 -1.484375 0.390625q-0.75 0.375 -1.125 0.953125l0 4.109375zm-3.046875 3.71875l0 -16.015625l3.046875 0l0 5.90625q1.390625 -1.765625 3.578125 -1.765625q2.296875 0 3.703125 1.6875q1.421875 1.671875 1.421875 4.40625q0 2.75 -1.421875 4.40625q-1.40625 1.65625 -3.703125 1.65625q-2.140625 0 -3.578125 -1.765625l0 1.484375l-3.046875 0zm12.95459 3.28125q1.21875 -2.109375 1.828125 -4.234375q0.625 -2.125 0.625 -4.875q0 -2.640625 -0.578125 -4.75q-0.578125 -2.125 -1.875 -4.421875l1.921875 -1.4375q1.734375 1.921875 2.78125 4.765625q1.0625 2.84375 1.0625 5.84375q0 2.96875 -1.0625 5.828125q-1.046875 2.859375 -2.78125 4.78125l-1.921875 -1.5z" fill-rule="nonzero"></path><path fill="#000000" fill-opacity="0.0" d="m141.7454 146.48294l0.94488525 -67.37008" fill-rule="evenodd"></path><path stroke="#000000" stroke-width="1.0" stroke-linejoin="round" stroke-linecap="butt" d="m141.7454 146.48294l0.86073303 -61.370667" fill-rule="evenodd"></path><path fill="#000000" stroke="#000000" stroke-width="1.0" stroke-linecap="butt" d="m144.25772 85.13544l-1.5879364 -4.560814l-1.71521 4.5144806z" fill-rule="evenodd"></path><path fill="#1496dd" d="m27.32021 310.23096l0 0c0 -18.60373 15.574852 -33.685028 34.787403 -33.685028l0 0c9.226189 0 18.074501 3.5489502 24.598404 9.866119c6.523903 6.317169 10.188995 14.885101 10.188995 23.818909l0 0c0 18.60376 -15.574852 33.68506 -34.7874 33.68506l0 0c-19.212551 0 -34.787403 -15.081299 -34.787403 -33.68506z" fill-rule="evenodd"></path><path fill="#000000" fill-opacity="0.0" d="m62.107613 276.54593l79.65354 -73.98425" fill-rule="evenodd"></path><path stroke="#000000" stroke-width="1.0" stroke-linejoin="round" stroke-linecap="butt" d="m62.107613 276.54593l75.25735 -69.90094" fill-rule="evenodd"></path><path fill="#000000" stroke="#000000" stroke-width="1.0" stroke-linecap="butt" d="m138.48904 207.85521l2.2009735 -4.2986298l-4.4491577 1.8781738z" fill-rule="evenodd"></path><path fill="#000000" fill-opacity="0.0" d="m220.89502 276.54593l-79.14961 -73.98425" fill-rule="evenodd"></path><path stroke="#000000" stroke-width="1.0" stroke-linejoin="round" stroke-linecap="butt" d="m220.89502 276.54593l-74.76636 -69.887054" fill-rule="evenodd"></path><path fill="#000000" stroke="#000000" stroke-width="1.0" stroke-linecap="butt" d="m147.25658 205.45222l-4.4431915 -1.8922577l2.1873627 4.3055725z" fill-rule="evenodd"></path><path fill="#000000" fill-opacity="0.0" d="m43.55643 276.54593l34.677166 0l0 73.921265l-34.677166 0z" fill-rule="evenodd"></path><path fill="#ffffff" d="m63.853306 316.26593l0 -1.59375q-1.703125 1.984375 -4.890625 1.984375q-2.25 0 -3.8125 -1.421875q-1.5625 -1.4375 -1.5625 -3.703125q0 -2.28125 1.484375 -3.640625q1.484375 -1.359375 3.890625 -1.359375q3.328125 0 4.890625 1.890625l0 -2.078125q0 -1.1875 -0.9375 -1.890625q-0.921875 -0.703125 -2.453125 -0.703125q-2.5625 0 -4.515625 1.828125l-1.53125 -2.71875q2.8125 -2.4375 6.75 -2.4375q3.2656212 0 4.999996 1.53125q1.75 1.515625 1.75 4.328125l0 9.984375l-4.062496 0zm-3.265625 -2.375q2.234375 0 3.265625 -1.34375l0 -1.90625q-1.03125 -1.34375 -3.265625 -1.34375q-1.21875 0 -2.0625 0.609375q-0.84375 0.59375 -0.84375 1.71875q0 1.09375 0.84375 1.6875q0.84375 0.578125 2.0625 0.578125z" fill-rule="nonzero"></path><path fill="#000000" fill-opacity="0.0" d="m196.76903 281.27036l34.67717 0l0 73.921234l-34.67717 0z" fill-rule="evenodd"></path><path fill="#ffffff" d="m210.5659 316.80286q0.640625 1.015625 1.90625 1.71875q1.265625 0.703125 2.703125 0.703125q2.28125 0 3.640625 -1.640625q1.359375 -1.65625 1.359375 -4.3125q0 -2.6875 -1.34375 -4.328125q-1.34375 -1.65625 -3.65625 -1.65625q-1.4375 0 -2.703125 0.75q-1.265625 0.734375 -1.90625 1.75l0 7.015625zm-2.390625 4.1875l0 -21.34375l2.390625 0l0 8.21875q1.984375 -2.71875 5.21875 -2.71875q3.078125 0 4.96875 2.25q1.90625 2.234375 1.90625 5.875q0 3.71875 -1.90625 5.921875q-1.890625 2.1875 -4.96875 2.1875q-1.625 0 -3.0 -0.75q-1.359375 -0.765625 -2.21875 -1.9375l0 2.296875l-2.390625 0z" fill-rule="nonzero"></path><path fill="#000000" fill-opacity="0.0" d="m152.1076 90.855644l104.787415 0l0 50.77166l-104.787415 0z" fill-rule="evenodd"></path><path fill="#000000" d="m168.74823 117.77564l0 -1.25q-0.9375 1.46875 -2.75 1.46875q-1.171875 0 -2.171875 -0.640625q-0.984375 -0.65625 -1.53125 -1.8125q-0.53125 -1.171875 -0.53125 -2.6875q0 -1.46875 0.484375 -2.671875q0.5 -1.203125 1.46875 -1.84375q0.984375 -0.640625 2.203125 -0.640625q0.890625 0 1.578125 0.375q0.703125 0.375 1.140625 0.984375l0 -4.875l1.65625 0l0 13.59375l-1.546875 0zm-5.28125 -4.921875q0 1.890625 0.796875 2.828125q0.8125 0.9375 1.890625 0.9375q1.09375 0 1.859375 -0.890625q0.765625 -0.890625 0.765625 -2.734375q0 -2.015625 -0.78125 -2.953125q-0.78125 -0.953125 -1.921875 -0.953125q-1.109375 0 -1.859375 0.90625q-0.75 0.90625 -0.75 2.859375zm8.391342 4.921875l0 -1.359375l6.265625 -7.1875q-1.0625 0.046875 -1.875 0.046875l-4.015625 0l0 -1.359375l8.046875 0l0 1.109375l-5.34375 6.25l-1.015625 1.140625q1.109375 -0.078125 2.09375 -0.078125l4.5625 0l0 1.4375l-8.71875 0zm8.953125 0.234375l3.9375 -14.0625l1.34375 0l-3.9375 14.0625l-1.34375 0zm12.823929 -0.234375l0 -1.25q-0.9375 1.46875 -2.75 1.46875q-1.171875 0 -2.171875 -0.640625q-0.984375 -0.65625 -1.53125 -1.8125q-0.53125 -1.171875 -0.53125 -2.6875q0 -1.46875 0.484375 -2.671875q0.5 -1.203125 1.46875 -1.84375q0.984375 -0.640625 2.203125 -0.640625q0.890625 0 1.578125 0.375q0.703125 0.375 1.140625 0.984375l0 -4.875l1.65625 0l0 13.59375l-1.546875 0zm-5.28125 -4.921875q0 1.890625 0.796875 2.828125q0.8125 0.9375 1.890625 0.9375q1.09375 0 1.859375 -0.890625q0.765625 -0.890625 0.765625 -2.734375q0 -2.015625 -0.78125 -2.953125q-0.78125 -0.953125 -1.921875 -0.953125q-1.109375 0 -1.859375 0.90625q-0.75 0.90625 -0.75 2.859375zm15.703842 1.3125l1.640625 0.21875q-0.265625 1.6875 -1.375 2.65625q-1.109375 0.953125 -2.734375 0.953125q-2.015625 0 -3.25 -1.3125q-1.21875 -1.328125 -1.21875 -3.796875q0 -1.59375 0.515625 -2.78125q0.53125 -1.203125 1.609375 -1.796875q1.09375 -0.609375 2.359375 -0.609375q1.609375 0 2.625 0.8125q1.015625 0.8125 1.3125 2.3125l-1.625 0.25q-0.234375 -1.0 -0.828125 -1.5q-0.59375 -0.5 -1.421875 -0.5q-1.265625 0 -2.0625 0.90625q-0.78125 0.90625 -0.78125 2.859375q0 1.984375 0.765625 2.890625q0.765625 0.890625 1.984375 0.890625q0.984375 0 1.640625 -0.59375q0.65625 -0.609375 0.84375 -1.859375z" fill-rule="nonzero"></path><path fill="#1496dd" d="m187.3202 310.23096l0 0c0 -18.60373 15.57486 -33.685028 34.7874 -33.685028l0 0c9.226196 0 18.074509 3.5489502 24.59842 9.866119c6.5238953 6.317169 10.188995 14.885101 10.188995 23.818909l0 0c0 18.60376 -15.57486 33.68506 -34.787415 33.68506l0 0c-19.21254 0 -34.7874 -15.081299 -34.7874 -33.68506z" fill-rule="evenodd"></path><path fill="#000000" fill-opacity="0.0" d="m203.55643 276.54593l34.67717 0l0 73.921265l-34.67717 0z" fill-rule="evenodd"></path><path fill="#ffffff" d="m218.63455 311.3128q0.515625 0.734375 1.5 1.234375q1.0 0.484375 1.984375 0.484375q1.796875 0 2.859375 -1.234375q1.078125 -1.234375 1.078125 -3.25q0 -2.015625 -1.078125 -3.25q-1.0625 -1.25 -2.859375 -1.25q-0.984375 0 -1.984375 0.515625q-0.984375 0.5 -1.5 1.265625l0 5.484375zm-4.0625 4.953125l0 -21.34375l4.0625 0l0 7.875q1.859375 -2.375 4.765625 -2.375q3.078125 0 4.96875 2.25q1.890625 2.234375 1.890625 5.875q0 3.6875 -1.890625 5.90625q-1.890625 2.203125 -4.96875 2.203125q-2.84375 0 -4.765625 -2.375l0 1.984375l-4.0625 0z" fill-rule="nonzero"></path><path fill="#000000" fill-opacity="0.0" d="m91.55643 324.54593l34.67717 0l0 73.921265l-34.67717 0z" fill-rule="evenodd"></path><path fill="#ffffff" d="m111.8533 364.26593l0 -1.59375q-1.703125 1.984375 -4.890625 1.984375q-2.25 0 -3.8125 -1.421875q-1.5625 -1.4375 -1.5625 -3.703125q0 -2.28125 1.484375 -3.640625q1.484375 -1.359375 3.890625 -1.359375q3.328125 0 4.890625 1.890625l0 -2.078125q0 -1.1875 -0.9375 -1.890625q-0.921875 -0.703125 -2.453125 -0.703125q-2.5625 0 -4.515625 1.828125l-1.53125 -2.71875q2.8125 -2.4375 6.75 -2.4375q3.265625 0 5.0 1.53125q1.75 1.515625 1.75 4.328125l0 9.984375l-4.0625 0zm-3.265625 -2.375q2.234375 0 3.265625 -1.34375l0 -1.90625q-1.03125 -1.34375 -3.265625 -1.34375q-1.21875 0 -2.0625 0.609375q-0.84375 0.59375 -0.84375 1.71875q0 1.09375 0.84375 1.6875q0.84375 0.578125 2.0625 0.578125z" fill-rule="nonzero"></path><path fill="#93c47d" d="m78.70604 23.04987l127.02362 0l0 56.062992l-127.02362 0z" fill-rule="evenodd"></path><path fill="#ffffff" d="m105.157585 55.08987l0 -2.28125l5.21875 -6.640625l-5.21875 0l0 -2.671875l9.359375 0l0 2.203125l-5.3125 6.734375l5.40625 0l0 2.65625l-9.453125 0zm17.327454 -9.3125l0 -1.921875l10.703117 0l0 1.921875l-10.703117 0zm0 4.484375l0 -1.875l10.703117 0l0 1.875l-10.703117 0zm23.802437 9.53125q-1.515625 0 -2.703125 -0.390625q-1.1875 -0.375 -2.296875 -1.34375l1.375 -2.203125q1.296875 1.4375 3.625 1.4375q1.515625 0 2.34375 -0.765625q0.84375 -0.765625 0.84375 -2.15625l0 -1.171875q-1.46875 1.8125 -3.578125 1.8125q-2.328125 0 -3.71875 -1.59375q-1.390625 -1.59375 -1.390625 -4.296875q0 -2.6875 1.375 -4.296875q1.390625 -1.609375 3.734375 -1.609375q2.1875 0 3.578125 1.765625l0 -1.484375l3.078125 0l0 10.796875q0 2.640625 -1.640625 4.0625q-1.625 1.4375 -4.625 1.4375zm0.578125 -7.484375q0.765625 0 1.5 -0.375q0.734375 -0.390625 1.109375 -0.953125l0 -3.734375q-0.375 -0.578125 -1.109375 -0.953125q-0.734375 -0.375 -1.5 -0.375q-1.296875 0 -2.125 0.84375q-0.8125 0.84375 -0.8125 2.359375q0 1.5 0.8125 2.34375q0.828125 0.84375 2.125 0.84375zm11.977463 7.5625q-1.78125 -2.015625 -2.796875 -4.875q-1.0 -2.859375 -1.0 -5.734375q0 -2.90625 1.0 -5.75q1.015625 -2.84375 2.796875 -4.859375l1.921875 1.4375q-1.375 2.515625 -1.90625 4.65625q-0.53125 2.140625 -0.53125 4.515625q0 2.4375 0.546875 4.609375q0.5625 2.15625 1.890625 4.5l-1.921875 1.5zm9.252975 -4.5q-2.734375 0 -4.4375 -1.71875q-1.703125 -1.734375 -1.703125 -4.375q0 -2.609375 1.703125 -4.328125q1.703125 -1.734375 4.4375 -1.734375q1.78125 0 2.890625 0.65625q1.125 0.640625 1.703125 1.421875l-2.0 1.875q-0.84375 -1.25 -2.4375 -1.25q-1.40625 0 -2.28125 0.9375q-0.875 0.921875 -0.875 2.421875q0 1.515625 0.875 2.453125q0.875 0.9375 2.28125 0.9375q1.546875 0 2.4375 -1.25l2.0 1.84375q-0.578125 0.8125 -1.703125 1.46875q-1.109375 0.640625 -2.890625 0.640625zm5.4759674 3.0q1.21875 -2.109375 1.828125 -4.234375q0.625 -2.125 0.625 -4.875q0 -2.640625 -0.578125 -4.75q-0.578125 -2.125 -1.875 -4.421875l1.921875 -1.4375q1.734375 1.921875 2.78125 4.765625q1.0625 2.84375 1.0625 5.84375q0 2.96875 -1.0625 5.828125q-1.046875 2.859375 -2.78125 4.78125l-1.921875 -1.5z" fill-rule="nonzero"></path><path fill="#000000" fill-opacity="0.0" d="m191.4462 215.40158l104.787384 0l0 50.771637l-104.787384 0z" fill-rule="evenodd"></path><path fill="#000000" d="m201.03995 231.2122l0.421875 -1.3125q1.484375 0.515625 2.140625 0.90625q-0.171875 -1.6875 -0.171875 -2.3125l1.34375 0q-0.03125 0.90625 -0.21875 2.296875q0.953125 -0.484375 2.1875 -0.890625l0.421875 1.3125q-1.171875 0.390625 -2.296875 0.53125q0.5625 0.484375 1.59375 1.75l-1.109375 0.78125q-0.546875 -0.734375 -1.28125 -1.984375q-0.6875 1.296875 -1.203125 1.984375l-1.09375 -0.78125q1.078125 -1.328125 1.53125 -1.75q-1.1875 -0.234375 -2.265625 -0.53125zm14.307144 11.109375l0 -1.25q-0.9375 1.46875 -2.75 1.46875q-1.171875 0 -2.171875 -0.640625q-0.984375 -0.65625 -1.53125 -1.8125q-0.53125 -1.171875 -0.53125 -2.6875q0 -1.46875 0.484375 -2.671875q0.5 -1.203125 1.46875 -1.84375q0.984375 -0.640625 2.203125 -0.640625q0.890625 0 1.578125 0.375q0.703125 0.375 1.140625 0.984375l0 -4.875l1.65625 0l0 13.59375l-1.546875 0zm-5.28125 -4.921875q0 1.890625 0.796875 2.828125q0.8125 0.9375 1.890625 0.9375q1.09375 0 1.859375 -0.890625q0.765625 -0.890625 0.765625 -2.734375q0 -2.015625 -0.78125 -2.953125q-0.78125 -0.953125 -1.921875 -0.953125q-1.109375 0 -1.859375 0.90625q-0.75 0.90625 -0.75 2.859375zm15.703842 1.3125l1.640625 0.21875q-0.265625 1.6875 -1.375 2.65625q-1.109375 0.953125 -2.734375 0.953125q-2.015625 0 -3.25 -1.3125q-1.21875 -1.328125 -1.21875 -3.796875q0 -1.59375 0.515625 -2.78125q0.53125 -1.203125 1.609375 -1.796875q1.09375 -0.609375 2.359375 -0.609375q1.609375 0 2.625 0.8125q1.015625 0.8125 1.3125 2.3125l-1.625 0.25q-0.234375 -1.0 -0.828125 -1.5q-0.59375 -0.5 -1.421875 -0.5q-1.265625 0 -2.0625 0.90625q-0.78125 0.90625 -0.78125 2.859375q0 1.984375 0.765625 2.890625q0.765625 0.890625 1.984375 0.890625q0.984375 0 1.640625 -0.59375q0.65625 -0.609375 0.84375 -1.859375zm1.640625 3.84375l3.9375 -14.0625l1.34375 0l-3.9375 14.0625l-1.34375 0zm12.823929 -0.234375l0 -1.25q-0.9375 1.46875 -2.75 1.46875q-1.171875 0 -2.171875 -0.640625q-0.984375 -0.65625 -1.53125 -1.8125q-0.53125 -1.171875 -0.53125 -2.6875q0 -1.46875 0.484375 -2.671875q0.5 -1.203125 1.46875 -1.84375q0.984375 -0.640625 2.203125 -0.640625q0.890625 0 1.578125 0.375q0.703125 0.375 1.140625 0.984375l0 -4.875l1.65625 0l0 13.59375l-1.546875 0zm-5.28125 -4.921875q0 1.890625 0.796875 2.828125q0.8125 0.9375 1.890625 0.9375q1.09375 0 1.859375 -0.890625q0.765625 -0.890625 0.765625 -2.734375q0 -2.015625 -0.78125 -2.953125q-0.78125 -0.953125 -1.921875 -0.953125q-1.109375 0 -1.859375 0.90625q-0.75 0.90625 -0.75 2.859375zm10.813217 4.921875l-1.546875 0l0 -13.59375l1.65625 0l0 4.84375q1.0625 -1.328125 2.703125 -1.328125q0.90625 0 1.71875 0.375q0.8125 0.359375 1.328125 1.03125q0.53125 0.65625 0.828125 1.59375q0.296875 0.9375 0.296875 2.0q0 2.53125 -1.25 3.921875q-1.25 1.375 -3.0 1.375q-1.75 0 -2.734375 -1.453125l0 1.234375zm-0.015625 -5.0q0 1.765625 0.46875 2.5625q0.796875 1.28125 2.140625 1.28125q1.09375 0 1.890625 -0.9375q0.796875 -0.953125 0.796875 -2.84375q0 -1.921875 -0.765625 -2.84375q-0.765625 -0.921875 -1.84375 -0.921875q-1.09375 0 -1.890625 0.953125q-0.796875 0.953125 -0.796875 2.75z" fill-rule="nonzero"></path><path fill="#000000" fill-opacity="0.0" d="m23.446194 215.40158l104.7874 0l0 50.771637l-104.7874 0z" fill-rule="evenodd"></path><path fill="#000000" d="m33.039944 231.2122l0.421875 -1.3125q1.484375 0.515625 2.140625 0.90625q-0.171875 -1.6875 -0.171875 -2.3125l1.34375 0q-0.03125 0.90625 -0.21875 2.296875q0.953125 -0.484375 2.1875 -0.890625l0.421875 1.3125q-1.171875 0.390625 -2.296875 0.53125q0.5625 0.484375 1.59375 1.75l-1.109375 0.78125q-0.546875 -0.734375 -1.28125 -1.984375q-0.6875 1.296875 -1.203125 1.984375l-1.09375 -0.78125q1.078125 -1.328125 1.53125 -1.75q-1.1875 -0.234375 -2.265625 -0.53125zm14.307144 11.109375l0 -1.25q-0.9375 1.46875 -2.75 1.46875q-1.171875 0 -2.171875 -0.640625q-0.984375 -0.65625 -1.53125 -1.8125q-0.53125 -1.171875 -0.53125 -2.6875q0 -1.46875 0.484375 -2.671875q0.5 -1.203125 1.46875 -1.84375q0.984375 -0.640625 2.203125 -0.640625q0.890625 0 1.578125 0.375q0.703125 0.375 1.140625 0.984375l0 -4.875l1.65625 0l0 13.59375l-1.546875 0zm-5.28125 -4.921875q0 1.890625 0.796875 2.828125q0.8125 0.9375 1.890625 0.9375q1.09375 0 1.859375 -0.890625q0.765625 -0.890625 0.765625 -2.734375q0 -2.015625 -0.78125 -2.953125q-0.78125 -0.953125 -1.921875 -0.953125q-1.109375 0 -1.859375 0.90625q-0.75 0.90625 -0.75 2.859375zm15.703842 1.3125l1.640625 0.21875q-0.265625 1.6875 -1.375 2.65625q-1.109375 0.953125 -2.734375 0.953125q-2.015625 0 -3.25 -1.3125q-1.21875 -1.328125 -1.21875 -3.796875q0 -1.59375 0.515625 -2.78125q0.53125 -1.203125 1.609375 -1.796875q1.09375 -0.609375 2.359375 -0.609375q1.609375 0 2.625 0.8125q1.015625 0.8125 1.3125 2.3125l-1.625 0.25q-0.234375 -1.0 -0.828125 -1.5q-0.59375 -0.5 -1.421875 -0.5q-1.265625 0 -2.0625 0.90625q-0.78125 0.90625 -0.78125 2.859375q0 1.984375 0.765625 2.890625q0.765625 0.890625 1.984375 0.890625q0.984375 0 1.640625 -0.59375q0.65625 -0.609375 0.84375 -1.859375zm1.640625 3.84375l3.9375 -14.0625l1.3437538 0l-3.9375038 14.0625l-1.34375 0zm12.823933 -0.234375l0 -1.25q-0.9375 1.46875 -2.75 1.46875q-1.171875 0 -2.171875 -0.640625q-0.984375 -0.65625 -1.53125 -1.8125q-0.53125 -1.171875 -0.53125 -2.6875q0 -1.46875 0.484375 -2.671875q0.5 -1.203125 1.46875 -1.84375q0.984375 -0.640625 2.203125 -0.640625q0.890625 0 1.578125 0.375q0.703125 0.375 1.140625 0.984375l0 -4.875l1.65625 0l0 13.59375l-1.546875 0zm-5.28125 -4.921875q0 1.890625 0.796875 2.828125q0.8125 0.9375 1.890625 0.9375q1.09375 0 1.859375 -0.890625q0.765625 -0.890625 0.765625 -2.734375q0 -2.015625 -0.78125 -2.953125q-0.78125 -0.953125 -1.921875 -0.953125q-1.109375 0 -1.859375 0.90625q-0.75 0.90625 -0.75 2.859375zm15.703842 3.703125q-0.9375 0.796875 -1.796875 1.125q-0.859375 0.3125 -1.84375 0.3125q-1.609375 0 -2.484375 -0.78125q-0.875 -0.796875 -0.875 -2.03125q0 -0.734375 0.328125 -1.328125q0.328125 -0.59375 0.859375 -0.953125q0.53125 -0.359375 1.203125 -0.546875q0.5 -0.140625 1.484375 -0.25q2.03125 -0.25 2.984375 -0.578125q0 -0.34375 0 -0.4375q0 -1.015625 -0.46875 -1.4375q-0.640625 -0.5625 -1.90625 -0.5625q-1.171875 0 -1.734375 0.40625q-0.5625 0.40625 -0.828125 1.46875l-1.640625 -0.234375q0.234375 -1.046875 0.734375 -1.6875q0.515625 -0.640625 1.46875 -0.984375q0.96875 -0.359375 2.25 -0.359375q1.265625 0 2.046875 0.296875q0.78125 0.296875 1.15625 0.75q0.375 0.453125 0.515625 1.140625q0.09375 0.421875 0.09375 1.53125l0 2.234375q0 2.328125 0.09375 2.953125q0.109375 0.609375 0.4375 1.171875l-1.75 0q-0.265625 -0.515625 -0.328125 -1.21875zm-0.140625 -3.71875q-0.90625 0.359375 -2.734375 0.625q-1.03125 0.140625 -1.453125 0.328125q-0.421875 0.1875 -0.65625 0.546875q-0.234375 0.359375 -0.234375 0.796875q0 0.671875 0.5 1.125q0.515625 0.4375 1.484375 0.4375q0.96875 0 1.71875 -0.421875q0.75 -0.4375 1.109375 -1.15625q0.265625 -0.578125 0.265625 -1.671875l0 -0.609375z" fill-rule="nonzero"></path></g></svg>

